# Blender v2.77 (sub 0) OBJ File: 'Hexagon.blend'
# www.blender.org
mtllib Hexagon.mtl
o Cylinder
v 0.000000 -0.050000 -0.500000
v 0.000000 0.050000 -0.500000
v 0.433013 -0.050000 -0.250000
v 0.433013 0.050000 -0.250000
v 0.433013 -0.050000 0.250000
v 0.433013 0.050000 0.250000
v -0.000000 -0.050000 0.500000
v -0.000000 0.050000 0.500000
v -0.433013 -0.050000 0.250000
v -0.433013 0.050000 0.250000
v -0.433013 -0.050000 -0.250000
v -0.433013 0.050000 -0.250000
vt 0.500000 0.936237
vt 0.500000 0.962982
vt 0.900954 0.731491
vt 0.877792 0.718118
vt 0.900954 0.268509
vt 0.877792 0.281882
vt 0.500000 0.037018
vt 0.500000 0.063763
vt 0.099046 0.268509
vt 0.122208 0.281882
vt 0.099046 0.731491
vt 0.122208 0.718118
vn 0.500000 0.000000 -0.866000
vn 1.000000 0.000000 0.000000
vn 0.500000 0.000000 0.866000
vn -0.500000 0.000000 0.866000
vn 0.000000 1.000000 -0.000000
vn -0.500000 0.000000 -0.866000
vn -1.000000 0.000000 0.000000
vn 0.000000 -1.000000 0.000000
usemtl None
s off
f 1/1/1 2/2/1 4/3/1 3/4/1
f 3/4/2 4/3/2 6/5/2 5/6/2
f 5/6/3 6/5/3 8/7/3 7/8/3
f 7/8/4 8/7/4 10/9/4 9/10/4
f 4/3/5 2/2/5 12/11/5 10/9/5 8/7/5 6/5/5
f 11/12/6 12/11/6 2/2/6 1/1/6
f 9/10/7 10/9/7 12/11/7 11/12/7
f 1/1/8 3/4/8 5/6/8 7/8/8 9/10/8 11/12/8
